<svg width="381" height="142" viewBox="0 0 381 142" fill="none" xmlns="http://www.w3.org/2000/svg">
<path fill-rule="evenodd" clip-rule="evenodd" d="M0 82.7452L14.6117 79.4304C15.7357 90.0062 23.9246 98.0565 35.6461 98.0565C51.8635 98.0565 59.2496 89.8484 59.2496 73.4322V62.5407C55.5565 69.486 47.207 75.0107 35.6461 75.0107C15.0934 75.0107 0.160568 59.6994 0.160568 38.2321C0.160568 17.7119 14.4511 1.29572 35.6461 1.29572C47.5281 1.29572 55.5565 5.71546 59.4102 13.2922V2.71635H74.343V72.9587C74.343 92.2161 64.7089 111 35.6461 111C16.3779 111 1.92682 99.0036 0 82.7452ZM37.8941 62.5407C24.2458 62.5407 15.5751 53.0698 15.5751 38.2321C15.5751 23.5523 24.5669 13.9236 37.8941 13.9236C50.9001 13.9236 59.8919 23.5523 59.8919 38.2321C59.8919 52.912 50.9001 62.5407 37.8941 62.5407ZM154.338 58.0065C154.338 44.4137 164.485 36.827 177.852 34.9303L198.79 31.9273C203.461 31.2951 204.749 28.9242 204.749 26.2373C204.749 18.8086 199.756 12.6445 187.999 12.6445C177.369 12.6445 171.41 19.1248 170.444 27.9759L155.948 24.6567C157.559 10.1156 170.927 0 187.677 0C210.87 0 219.889 12.9606 219.889 27.8178V65.9093C219.889 72.5476 220.533 76.499 220.855 78.3957H206.038C205.716 76.499 205.232 73.654 205.232 68.1221C201.85 73.496 194.119 80.7665 180.268 80.7665C164.485 80.7665 154.338 70.0187 154.338 58.0065ZM182.647 68.2412C195.143 68.2412 205.204 62.3947 205.204 45.8032V42.3268L181.349 45.8032C174.857 46.7513 169.989 50.3856 169.989 57.1802C169.989 62.8687 174.857 68.2412 182.647 68.2412ZM107.062 110.136H90.5032L109.795 69.922L76.5168 2.15953H93.8793L117.994 54.7229L141.144 2.15953H157.381L107.062 110.136Z" fill="#FFC60B"/>
<path fill-rule="evenodd" clip-rule="evenodd" d="M365.913 67.2921C361.783 75.042 352.251 78.607 343.356 78.607C325.564 78.607 314.762 65.5871 314.762 48.6922V1.72763H329.694V46.5223C329.694 56.7522 334.46 65.7421 347.009 65.7421C359.082 65.7421 365.118 57.9922 365.118 46.6773V1.72763H380.051V62.4871C380.051 68.3771 380.527 73.647 380.845 76.282H366.548C366.23 74.577 365.913 70.3921 365.913 67.2921ZM246.598 105.817H231.724V1.70673H246.278V13.3435C250.436 5.89597 259.552 0 272.027 0C295.057 0 307.371 17.2224 307.371 38.9444C307.371 61.1319 294.097 78.3543 271.547 78.3543C259.712 78.3543 250.756 72.9238 246.598 66.2521V105.817ZM291.72 39.1476C291.72 24.1817 283.153 12.9572 269.192 12.9572C255.549 12.9572 246.506 24.1817 246.506 39.1476C246.506 54.5812 255.549 65.6498 269.192 65.6498C282.995 65.6498 291.72 54.5812 291.72 39.1476Z" fill="#031828"/>
<path d="M185.638 105.258C189.866 105.258 193.293 101.831 193.293 97.6033C193.293 93.3755 189.866 89.9481 185.638 89.9481C181.41 89.9481 177.983 93.3755 177.983 97.6033C177.983 101.831 181.41 105.258 185.638 105.258Z" fill="#52489C"/>
<path d="M160.758 105.258C164.986 105.258 168.414 101.831 168.414 97.6033C168.414 93.3755 164.986 89.9481 160.758 89.9481C156.531 89.9481 153.103 93.3755 153.103 97.6033C153.103 101.831 156.531 105.258 160.758 105.258Z" fill="#FF4F79"/>
<path d="M212.431 105.258C216.659 105.258 220.086 101.831 220.086 97.6033C220.086 93.3755 216.659 89.9481 212.431 89.9481C208.203 89.9481 204.776 93.3755 204.776 97.6033C204.776 101.831 208.203 105.258 212.431 105.258Z" fill="#6EEB83"/>
<path d="M22.0742 122.41L14.9922 133.812V140.73H11.1094V134.004L4 122.41H8.45703L13.0234 130.121L17.6172 122.41H22.0742Z" fill="#031828"/>
<path d="M32.3555 122C33.668 122 34.8984 122.237 36.0469 122.711C37.1953 123.167 38.207 123.823 39.082 124.68C39.9753 125.518 40.668 126.521 41.1602 127.688C41.6706 128.854 41.9258 130.148 41.9258 131.57C41.9258 132.992 41.6706 134.286 41.1602 135.453C40.668 136.62 39.9753 137.632 39.082 138.488C38.207 139.327 37.1953 139.983 36.0469 140.457C34.8984 140.913 33.668 141.141 32.3555 141.141C31.043 141.141 29.8034 140.913 28.6367 140.457C27.4883 139.983 26.4674 139.327 25.5742 138.488C24.6992 137.632 24.0065 136.62 23.4961 135.453C23.0039 134.286 22.7578 132.992 22.7578 131.57C22.7578 130.148 23.0039 128.854 23.4961 127.688C24.0065 126.521 24.6992 125.518 25.5742 124.68C26.4674 123.823 27.4883 123.167 28.6367 122.711C29.8034 122.237 31.043 122 32.3555 122ZM32.3555 125.582C31.2617 125.582 30.2773 125.846 29.4023 126.375C28.5456 126.904 27.8711 127.615 27.3789 128.508C26.8867 129.401 26.6406 130.422 26.6406 131.57C26.6406 132.701 26.8867 133.721 27.3789 134.633C27.8711 135.526 28.5456 136.237 29.4023 136.766C30.2773 137.276 31.2617 137.531 32.3555 137.531C33.4492 137.531 34.4245 137.276 35.2812 136.766C36.138 136.237 36.8125 135.526 37.3047 134.633C37.7969 133.721 38.043 132.701 38.043 131.57C38.043 130.422 37.7969 129.401 37.3047 128.508C36.8125 127.615 36.138 126.904 35.2812 126.375C34.4245 125.846 33.4492 125.582 32.3555 125.582Z" fill="#031828"/>
<path d="M61.4492 122.355V133.484C61.4492 135.07 61.0938 136.438 60.3828 137.586C59.6901 138.716 58.7422 139.591 57.5391 140.211C56.3542 140.812 55.0234 141.113 53.5469 141.113C52.0703 141.113 50.7305 140.812 49.5273 140.211C48.3242 139.591 47.3672 138.716 46.6562 137.586C45.9635 136.438 45.6172 135.07 45.6172 133.484V122.355H49.418V133.266C49.418 134.669 49.7917 135.727 50.5391 136.438C51.3047 137.13 52.3073 137.467 53.5469 137.449C54.7682 137.449 55.7617 137.103 56.5273 136.41C57.293 135.717 57.6758 134.669 57.6758 133.266V122.355H61.4492Z" fill="#031828"/>
<path d="M74.082 122.41C74.9388 122.41 75.7773 122.529 76.5977 122.766C77.418 123.003 78.1562 123.367 78.8125 123.859C79.487 124.352 80.0156 124.971 80.3984 125.719C80.7995 126.448 81 127.323 81 128.344C81 129.419 80.7266 130.349 80.1797 131.133C79.651 131.898 78.9492 132.5 78.0742 132.938C77.1992 133.357 76.2513 133.603 75.2305 133.676L81.8203 140.73H76.8164L70.4453 133.238V140.73H66.6445V122.41H74.082ZM70.4453 125.965V130.586C70.8828 130.732 71.3659 130.85 71.8945 130.941C72.4414 131.014 72.9883 131.051 73.5352 131.051C74.6289 131.051 75.4948 130.832 76.1328 130.395C76.7891 129.939 77.1172 129.301 77.1172 128.48C77.1172 127.587 76.7708 126.949 76.0781 126.566C75.4036 126.165 74.5742 125.965 73.5898 125.965H70.4453Z" fill="#031828"/>
<path d="M98.1172 122.055C99.1745 122.055 100.141 122.201 101.016 122.492C101.891 122.784 102.629 123.121 103.23 123.504V127.25C102.574 126.849 101.872 126.475 101.125 126.129C100.378 125.783 99.5299 125.609 98.582 125.609C98.1081 125.609 97.6341 125.682 97.1602 125.828C96.7044 125.974 96.3216 126.193 96.0117 126.484C95.7201 126.776 95.5742 127.15 95.5742 127.605C95.5742 128.207 95.8385 128.663 96.3672 128.973C96.8958 129.283 97.543 129.592 98.3086 129.902L100.551 130.832C101.827 131.379 102.766 132.044 103.367 132.828C103.969 133.612 104.27 134.505 104.27 135.508C104.27 136.602 103.951 137.568 103.312 138.406C102.693 139.227 101.854 139.874 100.797 140.348C99.7578 140.822 98.6003 141.059 97.3242 141.059C96.2487 141.059 95.2188 140.876 94.2344 140.512C93.25 140.147 92.3932 139.701 91.6641 139.172V135.426C92.4661 136.009 93.3503 136.501 94.3164 136.902C95.2826 137.303 96.3125 137.504 97.4062 137.504C98.1719 137.504 98.8281 137.358 99.375 137.066C99.9219 136.757 100.195 136.301 100.195 135.699C100.195 135.225 99.9674 134.842 99.5117 134.551C99.0742 134.241 98.5911 133.986 98.0625 133.785L95.2461 132.691C93.8242 132.145 92.8581 131.434 92.3477 130.559C91.8555 129.665 91.6094 128.681 91.6094 127.605C91.6094 126.493 91.9102 125.527 92.5117 124.707C93.1315 123.868 93.9336 123.221 94.918 122.766C95.9023 122.292 96.9688 122.055 98.1172 122.055Z" fill="#031828"/>
<path d="M111.898 122.41V129.875H120.402V122.41H124.176V140.73H120.402V133.293H111.898V140.73H108.098V122.41H111.898Z" fill="#031828"/>
<path d="M137.738 122C139.051 122 140.281 122.237 141.43 122.711C142.578 123.167 143.59 123.823 144.465 124.68C145.358 125.518 146.051 126.521 146.543 127.688C147.053 128.854 147.309 130.148 147.309 131.57C147.309 132.992 147.053 134.286 146.543 135.453C146.051 136.62 145.358 137.632 144.465 138.488C143.59 139.327 142.578 139.983 141.43 140.457C140.281 140.913 139.051 141.141 137.738 141.141C136.426 141.141 135.186 140.913 134.02 140.457C132.871 139.983 131.85 139.327 130.957 138.488C130.082 137.632 129.389 136.62 128.879 135.453C128.387 134.286 128.141 132.992 128.141 131.57C128.141 130.148 128.387 128.854 128.879 127.688C129.389 126.521 130.082 125.518 130.957 124.68C131.85 123.823 132.871 123.167 134.02 122.711C135.186 122.237 136.426 122 137.738 122ZM137.738 125.582C136.645 125.582 135.66 125.846 134.785 126.375C133.928 126.904 133.254 127.615 132.762 128.508C132.27 129.401 132.023 130.422 132.023 131.57C132.023 132.701 132.27 133.721 132.762 134.633C133.254 135.526 133.928 136.237 134.785 136.766C135.66 137.276 136.645 137.531 137.738 137.531C138.832 137.531 139.807 137.276 140.664 136.766C141.521 136.237 142.195 135.526 142.688 134.633C143.18 133.721 143.426 132.701 143.426 131.57C143.426 130.422 143.18 129.401 142.688 128.508C142.195 127.615 141.521 126.904 140.664 126.375C139.807 125.846 138.832 125.582 137.738 125.582Z" fill="#031828"/>
<path d="M158.711 122.41C159.568 122.41 160.406 122.556 161.227 122.848C162.047 123.139 162.785 123.568 163.441 124.133C164.116 124.698 164.645 125.382 165.027 126.184C165.428 126.967 165.629 127.87 165.629 128.891C165.629 130.13 165.31 131.233 164.672 132.199C164.052 133.147 163.223 133.895 162.184 134.441C161.145 134.988 160.014 135.262 158.793 135.262C157.973 135.262 157.234 135.18 156.578 135.016C155.922 134.852 155.375 134.66 154.938 134.441V140.73H151.137V122.41H158.711ZM154.938 125.965V131.379C155.339 131.543 155.822 131.689 156.387 131.816C156.97 131.926 157.562 131.98 158.164 131.98C159.258 131.98 160.124 131.68 160.762 131.078C161.418 130.458 161.746 129.729 161.746 128.891C161.746 127.924 161.382 127.195 160.652 126.703C159.923 126.211 159.066 125.965 158.082 125.965H154.938Z" fill="#031828"/>
<path d="M176.895 122.41C177.751 122.41 178.59 122.556 179.41 122.848C180.23 123.139 180.969 123.568 181.625 124.133C182.299 124.698 182.828 125.382 183.211 126.184C183.612 126.967 183.812 127.87 183.812 128.891C183.812 130.13 183.493 131.233 182.855 132.199C182.236 133.147 181.406 133.895 180.367 134.441C179.328 134.988 178.198 135.262 176.977 135.262C176.156 135.262 175.418 135.18 174.762 135.016C174.105 134.852 173.559 134.66 173.121 134.441V140.73H169.32V122.41H176.895ZM173.121 125.965V131.379C173.522 131.543 174.005 131.689 174.57 131.816C175.154 131.926 175.746 131.98 176.348 131.98C177.441 131.98 178.307 131.68 178.945 131.078C179.602 130.458 179.93 129.729 179.93 128.891C179.93 127.924 179.565 127.195 178.836 126.703C178.107 126.211 177.25 125.965 176.266 125.965H173.121Z" fill="#031828"/>
<path d="M197.484 137.312V140.73H187.504V137.312H190.594V125.828H187.504V122.41H197.484V125.828H194.395V137.312H197.484Z" fill="#031828"/>
<path d="M218.84 122.41V140.867H217.473L206.617 129.684V140.73H202.816V122.273H204.184L215.039 133.621V122.41H218.84Z" fill="#031828"/>
<path d="M233.141 130.805H239.375V138.27C238.609 139.072 237.634 139.755 236.449 140.32C235.283 140.867 233.961 141.141 232.484 141.141C231.172 141.141 229.932 140.913 228.766 140.457C227.599 139.983 226.569 139.327 225.676 138.488C224.783 137.632 224.081 136.62 223.57 135.453C223.06 134.286 222.805 132.992 222.805 131.57C222.805 130.148 223.06 128.854 223.57 127.688C224.081 126.521 224.783 125.518 225.676 124.68C226.569 123.823 227.599 123.167 228.766 122.711C229.932 122.237 231.172 122 232.484 122C233.633 122 234.626 122.164 235.465 122.492C236.303 122.802 237.033 123.23 237.652 123.777V127.605C237.215 127.277 236.759 126.958 236.285 126.648C235.811 126.339 235.273 126.083 234.672 125.883C234.089 125.682 233.396 125.582 232.594 125.582C231.5 125.582 230.507 125.846 229.613 126.375C228.72 126.904 228.009 127.615 227.48 128.508C226.952 129.401 226.688 130.422 226.688 131.57C226.688 132.701 226.952 133.721 227.48 134.633C228.009 135.526 228.72 136.237 229.613 136.766C230.507 137.276 231.5 137.531 232.594 137.531C233.432 137.531 234.107 137.431 234.617 137.23C235.128 137.03 235.529 136.811 235.82 136.574L235.848 133.539H233.141V130.805Z" fill="#031828"/>
<path d="M259.172 122.41C260.029 122.41 260.867 122.556 261.688 122.848C262.508 123.139 263.246 123.568 263.902 124.133C264.577 124.698 265.105 125.382 265.488 126.184C265.889 126.967 266.09 127.87 266.09 128.891C266.09 130.13 265.771 131.233 265.133 132.199C264.513 133.147 263.684 133.895 262.645 134.441C261.605 134.988 260.475 135.262 259.254 135.262C258.434 135.262 257.695 135.18 257.039 135.016C256.383 134.852 255.836 134.66 255.398 134.441V140.73H251.598V122.41H259.172ZM255.398 125.965V131.379C255.799 131.543 256.283 131.689 256.848 131.816C257.431 131.926 258.023 131.98 258.625 131.98C259.719 131.98 260.585 131.68 261.223 131.078C261.879 130.458 262.207 129.729 262.207 128.891C262.207 127.924 261.842 127.195 261.113 126.703C260.384 126.211 259.527 125.965 258.543 125.965H255.398Z" fill="#031828"/>
<path d="M275.824 122.273L284.355 140.73H279.898L278.504 137.312H271.258L269.863 140.73H265.406L273.938 122.273H275.824ZM274.895 128.48L272.598 134.086H277.191L274.895 128.48Z" fill="#031828"/>
<path d="M294.801 122.41C295.658 122.41 296.496 122.529 297.316 122.766C298.137 123.003 298.875 123.367 299.531 123.859C300.206 124.352 300.734 124.971 301.117 125.719C301.518 126.448 301.719 127.323 301.719 128.344C301.719 129.419 301.445 130.349 300.898 131.133C300.37 131.898 299.668 132.5 298.793 132.938C297.918 133.357 296.97 133.603 295.949 133.676L302.539 140.73H297.535L291.164 133.238V140.73H287.363V122.41H294.801ZM291.164 125.965V130.586C291.602 130.732 292.085 130.85 292.613 130.941C293.16 131.014 293.707 131.051 294.254 131.051C295.348 131.051 296.214 130.832 296.852 130.395C297.508 129.939 297.836 129.301 297.836 128.48C297.836 127.587 297.49 126.949 296.797 126.566C296.122 126.165 295.293 125.965 294.309 125.965H291.164Z" fill="#031828"/>
<path d="M319.137 122.41V125.828H313.285V140.648H309.512V125.828H303.66V122.41H319.137Z" fill="#031828"/>
<path d="M338.633 122.41V140.867H337.266L326.41 129.684V140.73H322.609V122.273H323.977L334.832 133.621V122.41H338.633Z" fill="#031828"/>
<path d="M355.996 129.848V132.938H347.902V137.367H357.062V140.73H344.102V122.41H357.062V125.691H347.902V129.848H355.996Z" fill="#031828"/>
<path d="M369.422 122.41C370.279 122.41 371.117 122.529 371.938 122.766C372.758 123.003 373.496 123.367 374.152 123.859C374.827 124.352 375.355 124.971 375.738 125.719C376.139 126.448 376.34 127.323 376.34 128.344C376.34 129.419 376.066 130.349 375.52 131.133C374.991 131.898 374.289 132.5 373.414 132.938C372.539 133.357 371.591 133.603 370.57 133.676L377.16 140.73H372.156L365.785 133.238V140.73H361.984V122.41H369.422ZM365.785 125.965V130.586C366.223 130.732 366.706 130.85 367.234 130.941C367.781 131.014 368.328 131.051 368.875 131.051C369.969 131.051 370.835 130.832 371.473 130.395C372.129 129.939 372.457 129.301 372.457 128.48C372.457 127.587 372.111 126.949 371.418 126.566C370.743 126.165 369.914 125.965 368.93 125.965H365.785Z" fill="#031828"/>
</svg>
